# xmcd
#
# Track frame offsets: 
#        150
#        13392
#        26805
#        39741
#        52939
#        65813
#        78059
#        91293
#        103916
#        118028
#        130777
#        144489
#        158969
#        172400
#        185380
#        198552
#        211025
#        224081
#        236181
#        248557
#        261008
#        274332
#        287224
#        300303
#
# Disc length: 4163 seconds
#
# Revision: 0
# Processed by: cddbd v1.5.2PL0 Copyright (c) Steve Scherf et al.
# Submitted via: ExactAudioCopyFreeDBPlugin 1.0
#
DISCID=6f104118
DTITLE=Walter Davis - Complete Recorded Works Vol. 5 (1939-1940)
DYEAR=1994
DGENRE=Blues
TTITLE0=Doctor Blues
TTITLE1=Sundown Blues
TTITLE2=Cotton Farm Blues
TTITLE3=Nothing but You
TTITLE4=Jungle Blues
TTITLE5=Call Your Name
TTITLE6=Western Land
TTITLE7=Just Want to Think
TTITLE8=Cotton Club Blues
TTITLE9=Good Time Woman
TTITLE10=If I Get Lucky
TTITLE11=Death of Bessie Smith
TTITLE12=Wrapped Up in Bad Luck
TTITLE13=Cozy Corner Blues
TTITLE14=Save It All for Me
TTITLE15=Come Back Baby
TTITLE16=No Place to Go
TTITLE17=If It Hadn't Been for You
TTITLE18=The Way I Love You
TTITLE19=Four Feet Eleven
TTITLE20=Hello Blues
TTITLE21=Can't See Your Face
TTITLE22=Drop Me a Line or Two
TTITLE23=Just Thinking
EXTD=
EXTT0=
EXTT1=
EXTT2=
EXTT3=
EXTT4=
EXTT5=
EXTT6=
EXTT7=
EXTT8=
EXTT9=
EXTT10=
EXTT11=
EXTT12=
EXTT13=
EXTT14=
EXTT15=
EXTT16=
EXTT17=
EXTT18=
EXTT19=
EXTT20=
EXTT21=
EXTT22=
EXTT23=
PLAYORDER=
